<svg xmlns="http://www.w3.org/2000/svg" viewBox="-801.8 -1318.2 340.2 425.25">
	<path d="M-686-1194.9h9.3v71.4h-9.3zM-662.1-1194.9h9.3v71.4h-9.3zM-648-1194.9h9.3v71.4h-9.3zM-624.8-1194.9h9.3v71.4h-9.3zM-686-1118.4h9.3v9.3h-9.3zM-662.1-1118.4h9.3v9.3h-9.3zM-648-1118.4h9.3v9.3h-9.3zM-624.8-1118.4h9.3v9.3h-9.3zM-610-1194.9h9.3v71.4h-9.3zM-610-1118.4h9.3v9.3h-9.3zM-591-1194.9h9.3v71.4h-9.3zM-591-1118.4h9.3v9.3h-9.3zM-574.1-1194.9h9.3v94.2h-9.3zM-703.4-1194.9h9.3v94.2h-9.3zM-536.1-1193.3h-9.3v-20.7H-566v-9.3h29.9M-536.1-1072.3H-566v-9.3h20.6v-20.7h9.3M-702.2-1072.3h-30v-30h9.3v20.7h20.7M-722.9-1193.3h-9.3v-30h30v9.3h-20.7"/>
</svg>