<svg xmlns="http://www.w3.org/2000/svg" viewBox="0 0 100 125">
	<path d="M49.8 20c-7.3 0-13.3 6-13.3 13.3v6.4c0 7.3 6 13.3 13.3 13.3h.4c7.3 0 13.3-6 13.3-13.3v-6.4c0-7.3-6-13.3-13.3-13.3h-.4zm10.7 13.3v6.4c0 5.7-4.6 10.3-10.3 10.3h-.4c-5.7 0-10.3-4.6-10.3-10.3v-6.4c0-5.7 4.6-10.3 10.3-10.3h.4c5.7 0 10.3 4.6 10.3 10.3zM23 80h54c.8 0 1.5-.7 1.5-1.5v-6.8C78.5 61.4 70.2 53 60 53c-.8 0-1.5.7-1.5 1.5S59.2 56 60 56c8.5 0 15.5 7.1 15.5 15.8V77h-51v-5.2C24.5 63.1 31.4 56 40 56c.8 0 1.5-.7 1.5-1.5S40.8 53 40 53c-10.2 0-18.5 8.4-18.5 18.8v6.8c0 .7.7 1.4 1.5 1.4z"/>
</svg>