<svg xmlns="http://www.w3.org/2000/svg" viewBox="0 0 80 100">
	<style>.st0{fill:none;stroke:#000000;stroke-width:3;stroke-miterlimit:10;} .st1{fill:none;stroke:#2A1014;stroke-width:3;stroke-miterlimit:10;} .st2{stroke:#000000;stroke-width:3;stroke-miterlimit:10;} .st3{fill:none;stroke:#000000;stroke-width:2;stroke-miterlimit:10;} .st4{fill:#FFFFFF;} .st5{fill:none;stroke:#FFFFFF;stroke-width:2;stroke-miterlimit:10;}</style>
	<path class="st0" d="M40 41.8h-3.7c-.6 0-1.1.5-1.1 1.1v10.7c.1.6.5 1.1 1.1 1.1H40"/><path class="st0" d="M40 11.1c-6.7 0-11.4 2.1-11.4 6.3v5.3H40 15.5c-3.4.2-5.9 2.8-6.2 6.2v11c7 3.1 20.1 5.9 25.9 5.6M40 41.8h3.7c.6 0 1.1.5 1.1 1.1v10.7c-.1.6-.5 1.1-1.1 1.1H40"/>
	<path class="st0" d="M40 11.1c6.7 0 11.4 2.1 11.4 6.3v5.3H40h24.5c3.4.2 5.9 2.8 6.2 6.2v11c-7 3.1-20.1 5.9-25.9 5.6M9.3 44.6v14.9c.3 3.3 3.1 5.8 6.2 6H40M70.7 44.6v14.9c-.3 3.3-3.1 5.8-6.2 6H40"/>
</svg>